<mxfile host="app.diagrams.net" agent="Mozilla/5.0 (Macintosh; Intel Mac OS X 10_15_7) AppleWebKit/537.36 (KHTML, like Gecko) Chrome/134.0.0.0 Safari/537.36" version="26.2.12">
  <diagram name="第 1 页" id="OKu3ETkvJFSNta9HW8sM">
    <mxGraphModel dx="1158" dy="652" grid="1" gridSize="10" guides="1" tooltips="1" connect="1" arrows="1" fold="1" page="1" pageScale="1" pageWidth="827" pageHeight="1169" math="0" shadow="0">
      <root>
        <mxCell id="0" />
        <mxCell id="1" parent="0" />
        <mxCell id="2Xi1d31dLjrvnzkfmjtN-1" value="" style="endArrow=none;html=1;rounded=0;" edge="1" parent="1">
          <mxGeometry width="50" height="50" relative="1" as="geometry">
            <mxPoint x="200" y="500" as="sourcePoint" />
            <mxPoint x="200" y="90" as="targetPoint" />
          </mxGeometry>
        </mxCell>
        <mxCell id="2Xi1d31dLjrvnzkfmjtN-2" value="" style="endArrow=none;html=1;rounded=0;" edge="1" parent="1">
          <mxGeometry width="50" height="50" relative="1" as="geometry">
            <mxPoint x="480" y="500" as="sourcePoint" />
            <mxPoint x="480" y="80" as="targetPoint" />
          </mxGeometry>
        </mxCell>
        <mxCell id="2Xi1d31dLjrvnzkfmjtN-3" value="Sender" style="text;html=1;align=center;verticalAlign=middle;whiteSpace=wrap;rounded=0;" vertex="1" parent="1">
          <mxGeometry x="160" y="40" width="60" height="30" as="geometry" />
        </mxCell>
        <mxCell id="2Xi1d31dLjrvnzkfmjtN-4" value="receiver" style="text;html=1;align=center;verticalAlign=middle;whiteSpace=wrap;rounded=0;" vertex="1" parent="1">
          <mxGeometry x="450" y="40" width="60" height="30" as="geometry" />
        </mxCell>
        <mxCell id="2Xi1d31dLjrvnzkfmjtN-5" value="按需下发send-WR" style="text;html=1;align=center;verticalAlign=middle;whiteSpace=wrap;rounded=0;" vertex="1" parent="1">
          <mxGeometry x="75" y="150" width="110" height="30" as="geometry" />
        </mxCell>
        <mxCell id="2Xi1d31dLjrvnzkfmjtN-6" value="提前准备足够的recv-WR" style="text;html=1;align=center;verticalAlign=middle;whiteSpace=wrap;rounded=0;" vertex="1" parent="1">
          <mxGeometry x="470" y="150" width="160" height="30" as="geometry" />
        </mxCell>
        <mxCell id="2Xi1d31dLjrvnzkfmjtN-7" value="" style="endArrow=classic;html=1;rounded=0;strokeColor=#FF99FF;" edge="1" parent="1">
          <mxGeometry width="50" height="50" relative="1" as="geometry">
            <mxPoint x="200" y="180" as="sourcePoint" />
            <mxPoint x="480" y="230" as="targetPoint" />
          </mxGeometry>
        </mxCell>
        <mxCell id="2Xi1d31dLjrvnzkfmjtN-9" value="&lt;font color=&quot;#ff99ff&quot;&gt;请求（ibv_send方式）&lt;/font&gt;" style="text;html=1;align=center;verticalAlign=middle;whiteSpace=wrap;rounded=0;" vertex="1" parent="1">
          <mxGeometry x="205" y="160" width="155" height="30" as="geometry" />
        </mxCell>
        <mxCell id="2Xi1d31dLjrvnzkfmjtN-11" value="" style="endArrow=classic;html=1;rounded=0;dashed=1;fillColor=#ffe6cc;strokeColor=#d79b00;" edge="1" parent="1">
          <mxGeometry width="50" height="50" relative="1" as="geometry">
            <mxPoint x="480" y="230" as="sourcePoint" />
            <mxPoint x="200" y="270" as="targetPoint" />
          </mxGeometry>
        </mxCell>
        <mxCell id="2Xi1d31dLjrvnzkfmjtN-12" value="&lt;font style=&quot;color: rgb(151, 208, 119);&quot;&gt;ack&lt;/font&gt;" style="edgeLabel;html=1;align=center;verticalAlign=middle;resizable=0;points=[];" vertex="1" connectable="0" parent="2Xi1d31dLjrvnzkfmjtN-11">
          <mxGeometry x="0.0152" y="-5" relative="1" as="geometry">
            <mxPoint as="offset" />
          </mxGeometry>
        </mxCell>
        <mxCell id="2Xi1d31dLjrvnzkfmjtN-13" value="" style="endArrow=classic;html=1;rounded=0;dashed=1;fillColor=#e1d5e7;strokeColor=#3333FF;" edge="1" parent="1">
          <mxGeometry width="50" height="50" relative="1" as="geometry">
            <mxPoint x="480" y="230" as="sourcePoint" />
            <mxPoint x="530" y="230" as="targetPoint" />
          </mxGeometry>
        </mxCell>
        <mxCell id="2Xi1d31dLjrvnzkfmjtN-14" value="&lt;font style=&quot;color: rgb(51, 51, 255);&quot;&gt;recv CQE&lt;/font&gt;" style="text;html=1;align=center;verticalAlign=middle;whiteSpace=wrap;rounded=0;" vertex="1" parent="1">
          <mxGeometry x="540" y="210" width="80" height="30" as="geometry" />
        </mxCell>
        <mxCell id="2Xi1d31dLjrvnzkfmjtN-15" value="" style="endArrow=classic;html=1;rounded=0;dashed=1;fillColor=#e1d5e7;strokeColor=#3333FF;" edge="1" parent="1">
          <mxGeometry width="50" height="50" relative="1" as="geometry">
            <mxPoint x="200" y="270" as="sourcePoint" />
            <mxPoint x="160" y="270" as="targetPoint" />
          </mxGeometry>
        </mxCell>
        <mxCell id="2Xi1d31dLjrvnzkfmjtN-16" value="&lt;font style=&quot;color: rgb(51, 51, 255);&quot;&gt;send CQE&lt;/font&gt;" style="text;html=1;align=center;verticalAlign=middle;whiteSpace=wrap;rounded=0;" vertex="1" parent="1">
          <mxGeometry x="72.5" y="250" width="75" height="30" as="geometry" />
        </mxCell>
        <mxCell id="2Xi1d31dLjrvnzkfmjtN-20" style="edgeStyle=orthogonalEdgeStyle;rounded=0;orthogonalLoop=1;jettySize=auto;html=1;exitX=0.5;exitY=1;exitDx=0;exitDy=0;" edge="1" parent="1" source="2Xi1d31dLjrvnzkfmjtN-9" target="2Xi1d31dLjrvnzkfmjtN-9">
          <mxGeometry relative="1" as="geometry" />
        </mxCell>
        <mxCell id="2Xi1d31dLjrvnzkfmjtN-26" value="" style="endArrow=classic;html=1;rounded=0;strokeColor=#FF99FF;" edge="1" parent="1">
          <mxGeometry width="50" height="50" relative="1" as="geometry">
            <mxPoint x="480" y="280" as="sourcePoint" />
            <mxPoint x="200" y="350" as="targetPoint" />
          </mxGeometry>
        </mxCell>
        <mxCell id="2Xi1d31dLjrvnzkfmjtN-27" value="" style="endArrow=classic;html=1;rounded=0;dashed=1;fillColor=#e1d5e7;strokeColor=#3333FF;" edge="1" parent="1">
          <mxGeometry width="50" height="50" relative="1" as="geometry">
            <mxPoint x="480" y="400" as="sourcePoint" />
            <mxPoint x="520" y="400" as="targetPoint" />
          </mxGeometry>
        </mxCell>
        <mxCell id="2Xi1d31dLjrvnzkfmjtN-28" value="&lt;font style=&quot;color: rgb(51, 51, 255);&quot;&gt;send CQE&lt;/font&gt;" style="text;html=1;align=center;verticalAlign=middle;whiteSpace=wrap;rounded=0;" vertex="1" parent="1">
          <mxGeometry x="530" y="390" width="80" height="30" as="geometry" />
        </mxCell>
        <mxCell id="2Xi1d31dLjrvnzkfmjtN-29" value="" style="endArrow=classic;html=1;rounded=0;dashed=1;fillColor=#e1d5e7;strokeColor=#3333FF;" edge="1" parent="1">
          <mxGeometry width="50" height="50" relative="1" as="geometry">
            <mxPoint x="200" y="350" as="sourcePoint" />
            <mxPoint x="160" y="350" as="targetPoint" />
          </mxGeometry>
        </mxCell>
        <mxCell id="2Xi1d31dLjrvnzkfmjtN-30" value="&lt;font style=&quot;color: rgb(51, 51, 255);&quot;&gt;recv CQE&lt;/font&gt;" style="text;html=1;align=center;verticalAlign=middle;whiteSpace=wrap;rounded=0;" vertex="1" parent="1">
          <mxGeometry x="87.5" y="340" width="60" height="30" as="geometry" />
        </mxCell>
        <mxCell id="2Xi1d31dLjrvnzkfmjtN-34" value="&lt;font color=&quot;#ff99ff&quot;&gt;响应（ibv_send方式）&lt;/font&gt;" style="text;html=1;align=center;verticalAlign=middle;whiteSpace=wrap;rounded=0;" vertex="1" parent="1">
          <mxGeometry x="300" y="310" width="130" height="30" as="geometry" />
        </mxCell>
        <mxCell id="2Xi1d31dLjrvnzkfmjtN-35" value="" style="endArrow=classic;html=1;rounded=0;dashed=1;fillColor=#ffe6cc;strokeColor=#d79b00;" edge="1" parent="1">
          <mxGeometry width="50" height="50" relative="1" as="geometry">
            <mxPoint x="200" y="350" as="sourcePoint" />
            <mxPoint x="480" y="400" as="targetPoint" />
          </mxGeometry>
        </mxCell>
        <mxCell id="2Xi1d31dLjrvnzkfmjtN-36" value="&lt;font style=&quot;color: rgb(151, 208, 119);&quot;&gt;ack&lt;/font&gt;" style="edgeLabel;html=1;align=center;verticalAlign=middle;resizable=0;points=[];" vertex="1" connectable="0" parent="2Xi1d31dLjrvnzkfmjtN-35">
          <mxGeometry x="-0.0294" y="1" relative="1" as="geometry">
            <mxPoint as="offset" />
          </mxGeometry>
        </mxCell>
        <mxCell id="2Xi1d31dLjrvnzkfmjtN-39" value="提前准备足够的recv-WR" style="text;html=1;align=center;verticalAlign=middle;whiteSpace=wrap;rounded=0;" vertex="1" parent="1">
          <mxGeometry x="37.5" y="290" width="160" height="30" as="geometry" />
        </mxCell>
      </root>
    </mxGraphModel>
  </diagram>
</mxfile>
